<svg xmlns="http://www.w3.org/2000/svg" width="190" height="190" fill="none" overflow="visible"><g><path d="M 0 161.091 C 5.259 165.464 10.519 170.078 15.848 174.755 C 16.945 172.502 17.227 170.022 17.764 167.741 C 19.286 161.266 20.711 154.735 22.235 148.26 C 22.762 146.018 22.347 144.788 20.868 144.875 C 18.852 144.994 17.516 143.579 16.405 141.088 C 15.541 139.153 14.583 137.262 13.489 135.648 C 10.699 131.53 10.993 125.824 10.206 120.686 C 9.303 114.783 9.275 108.744 9.218 102.709 C 9.156 96.181 10.62 90.192 12.019 84.28 C 12.98 80.218 18.817 76.97 21.805 78.097 C 22.606 78.402 23.4 78.754 24.185 79.151 C 25.067 79.595 25.516 79.295 25.83 77.748 C 28.465 64.729 30.576 51.36 35.892 40.09 C 36.702 38.371 37.446 36.452 37.882 34.443 C 39.087 28.903 41.431 25.216 44.697 22.577 C 46.95 20.755 49.028 18.401 51.201 16.33 C 52.349 15.237 53.53 14.225 55.344 13.502 C 53.98 16.287 52.681 17.99 51.299 19.494 C 48.927 22.074 46.578 24.749 44.07 26.968 C 41.078 29.616 39.899 33.854 39.233 38.722 C 38.608 43.298 37.484 47.504 35.933 51.535 C 32.777 59.73 29.266 67.687 27.92 77.282 C 27.575 79.744 27.355 82.153 28.599 84.29 C 29.332 85.549 29.103 87.204 28.91 88.638 C 27.356 100.21 27.728 111.661 29.14 123.243 C 30.038 130.608 30.549 138.146 30.607 145.7 C 30.615 146.718 30.611 148.009 31.287 148.15 C 33.749 148.661 34.269 151.877 35.199 154.576 C 35.352 155.022 35.599 155.387 35.772 155.727 C 36.556 155.577 36.533 154.724 36.586 154.005 C 36.959 148.965 36.907 143.959 36.737 138.866 C 36.473 130.95 36.616 122.971 37.037 115.038 C 37.048 114.825 37.063 114.595 37.121 114.407 C 39.428 106.829 42.808 100.392 45.708 93.443 L 46.174 93.829 L 45.204 99.913 C 47.282 99.705 48.763 97.894 50.405 96.752 C 51.502 95.989 52.694 95.085 52.933 98.216 C 56.062 97.427 58.796 95.715 61.172 92.51 C 63.882 88.855 66.685 85.369 69.491 81.896 C 70.245 80.963 71.064 79.084 72.123 80.359 C 73.125 81.565 72.317 83.401 71.996 84.842 C 70.891 89.808 69.698 94.726 68.504 99.808 C 69.637 100.473 70.214 99.319 70.848 98.698 C 77.729 91.962 84.637 85.293 91.439 78.365 C 93.559 76.206 95.238 76.48 97.26 78.557 C 103.695 85.166 110.212 91.579 116.708 98.039 C 117.6 98.927 118.416 100.147 119.848 100.285 C 119.248 95.709 118.089 91.707 117.21 87.576 C 116.905 86.146 116.509 84.764 116.18 83.346 C 115.939 82.305 115.741 81.231 116.505 80.466 C 117.198 79.771 117.849 80.14 118.41 80.843 C 120.073 82.925 121.729 85.025 123.35 87.185 C 124.814 89.135 126.266 91.115 127.66 93.187 C 130.372 97.216 133.891 99.437 137.28 99.948 C 139.619 100.3 141.972 100.319 144.382 101.698 C 144.53 99.326 143.36 97.506 143.696 95.257 C 143.963 95.401 144.223 95.41 144.318 95.611 C 147.26 101.855 150.265 108.052 152.706 114.813 C 153.613 117.324 153.502 120.46 153.545 123.349 C 153.71 134.369 154.153 145.359 154.826 156.328 C 154.879 157.183 154.917 158.047 155.48 158.876 C 157.282 155.874 158.235 152.042 159.642 148.692 C 159.907 148.062 160.058 147.157 160.426 146.814 C 163.909 143.569 163.256 137.735 164.04 132.812 C 165.409 124.21 165.453 115.298 166.487 106.616 C 166.655 105.202 166.326 103.815 166.345 102.449 C 166.375 100.3 164.906 97.741 166.955 95.968 C 167.165 95.787 167.018 94.542 167.009 93.791 C 166.957 89.822 167.049 86.243 168.631 82.487 C 170.016 79.199 168.943 74.763 167.839 71.063 C 166.016 64.957 163.381 59.783 160.426 54.952 C 158.468 51.753 157.792 47.672 157.636 43.405 C 157.405 37.028 155.562 33.189 151.608 31.574 C 148.966 30.494 146.535 28.986 144.652 25.681 C 143.864 24.298 142.785 23.648 141.533 23.507 C 138.526 23.171 136.539 19.77 136.779 15.159 C 136.927 12.301 136.173 11.71 134.62 12.093 C 132.37 12.649 130.125 12.989 127.901 11.748 C 126.535 10.986 125.683 9.57 125.541 7.305 C 125.412 5.234 125.267 3.227 123.971 2.09 C 125.58 -0.553 129.098 -0.702 131.515 1.715 C 136.441 6.643 141.32 11.685 146.215 16.69 C 149.555 20.104 152.866 23.592 156.239 26.925 C 157.34 28.012 158.047 29.41 158.646 31.183 C 163.162 44.557 166.727 58.589 170.401 72.551 C 171.178 75.504 170.742 78.765 171.525 81.854 C 172.551 82.17 173.524 81.564 174.452 81.021 C 178.736 78.514 182.516 80.099 186.045 84.252 C 186.695 85.017 187.085 85.933 187.308 87.094 C 188.88 95.25 190.458 103.374 189.876 112.114 C 189.425 118.885 188.368 125.461 187.576 132.122 C 187.377 133.792 186.44 134.778 185.766 135.987 C 184.996 137.367 184.153 138.654 183.441 140.104 C 181.519 144.018 179.574 147.788 175.913 147.022 C 175.73 146.984 175.514 147.181 175.332 147.325 C 175.154 147.465 174.999 147.677 174.616 148.095 C 176.702 158.139 180.155 167.391 182.436 177.373 L 181.986 178.02 L 167.065 156.59 C 166.857 156.726 166.649 156.861 166.441 156.996 C 166.642 167.8 166.901 178.603 166.684 189.702 C 165.529 190 164.416 190 163.155 189.774 C 162.981 185.447 162.502 181.53 160.871 177.906 L 159.218 190 C 158.645 190 158.072 190 157.359 189.748 C 158.169 182.794 158.264 176.017 158.043 169.19 C 157.298 173.252 156.785 177.347 156.439 181.475 C 156.202 184.3 155.32 187.047 155.918 190 C 152.335 190 148.752 190 144.961 189.762 C 144.403 186.548 143.274 184.811 141.406 184.087 C 140.552 183.757 139.549 183.529 139.016 182.346 C 138.045 180.188 136.606 179.869 135.187 179.819 C 125.715 179.492 116.227 179.37 106.864 182.001 C 99.67 184.022 92.558 183.417 85.448 181.48 C 77.528 179.322 69.538 178.377 61.53 178.545 C 54.865 178.685 49.007 182.705 44.136 190 C 39.59 190 35.044 190 30.223 189.824 C 26.37 185.646 22.41 182.665 18.619 179.238 C 12.447 173.66 6.21 168.263 0 162.791 L 0 161.091 M 74.44 112.114 C 73.643 115.641 72.106 118.552 70.004 119.745 C 65.854 122.101 61.533 123.647 57.992 119.782 C 56.883 114.079 57.793 108.725 56.135 103.849 C 57.065 102.653 58.362 103.967 59.23 102.519 C 60.933 99.677 63.163 98.807 65.553 98.425 C 67.512 98.112 68.067 96.689 67.765 93.241 C 66.202 93.494 64.34 93.241 63.227 94.818 C 60.024 99.36 56.014 100.937 52.159 103.085 C 50.162 104.197 48.769 106 47.708 108.874 C 46.297 112.696 44.657 116.311 43.102 120 C 42.721 120.904 42.32 121.766 42.254 122.901 C 41.567 134.769 40.872 146.636 40.182 158.505 C 40.029 161.131 40.458 162.552 42.478 162.213 C 43.745 162.002 45.793 161.749 46.107 163.954 C 46.534 166.942 47.827 167.587 49.121 168.616 C 51.512 170.515 53.913 172.386 56.346 174.148 C 57.206 174.77 58.224 175.575 59.078 175.369 C 62.727 174.484 66.332 175.532 69.95 175.52 C 76.365 175.5 82.667 177.062 88.945 178.644 C 94.713 180.097 100.377 179.792 106.102 178.584 C 111.055 177.538 116.014 176.412 121.019 176.274 C 126.034 176.136 131.054 176.267 136.07 176.353 C 137.336 176.374 138.494 176.081 139.641 175.167 C 141.967 173.315 144.355 171.657 146.696 169.85 C 148.581 168.395 150.435 166.839 152.235 165.383 C 151.915 163.84 151.548 162.653 151.43 161.407 C 150.697 153.628 150.098 145.816 149.301 138.053 C 148.506 130.299 148.698 122.042 144.679 115.844 C 143.474 113.987 142.585 111.569 141.708 109.261 C 140.766 106.783 139.407 105.525 137.733 104.507 C 133.859 102.149 129.751 100.655 126.444 96.164 C 124.961 94.149 122.789 94.033 120.672 94.034 C 120.618 95.984 120.662 98.27 121.947 98.274 C 125.955 98.287 128.014 104.726 131.782 104.9 C 129.929 109.978 130.048 115.416 129.47 120.656 C 126.645 122.7 123.502 121.953 120.315 121.547 C 115.946 120.99 111.845 114.186 112.064 107.444 C 112.17 104.18 113.059 101.748 114.789 99.044 C 114.363 98.72 114.035 98.52 113.74 98.237 C 107.7 92.447 101.655 86.671 95.637 80.825 C 94.579 79.798 93.73 80.185 92.784 81.096 C 88.742 84.986 84.677 88.816 80.63 92.695 C 78.139 95.083 75.666 97.518 73.189 99.928 C 74.986 104.352 75.283 107.191 74.44 112.114 M 170.065 107.506 C 169.794 117.979 168.136 128.087 166.752 138.264 C 166.581 139.526 166.018 140.99 167.011 141.702 C 168.772 142.966 170.329 144.909 172.561 144.526 C 176.326 143.88 179.898 143.086 181.996 137.245 C 182.291 136.422 182.773 135.737 183.223 135.082 C 185.088 132.363 186.068 129.109 186.648 125.12 C 188.334 113.534 188.722 102.225 185.985 90.817 C 185.047 86.907 183.433 84.791 181.216 83.493 C 177.189 81.136 173.738 84.404 170.248 86.781 C 169.451 87.324 169.167 88.934 169.325 90.179 C 170.027 95.716 169.252 101.393 170.065 107.506 M 27.083 132.218 C 25.391 120.347 23.66 108.5 24.271 96.163 C 24.457 92.416 24.897 88.683 24.716 84.889 C 24.65 83.513 24.486 82.492 23.562 81.821 C 19.842 79.12 14.566 82.462 13.437 88.623 C 10.528 104.507 10.873 119.937 16.673 134.28 C 17.766 136.982 18.395 140.679 20.816 141.473 C 22.687 142.087 24.603 142.374 26.501 142.766 C 27.641 143.001 27.951 142.112 27.78 140.444 C 27.52 137.898 27.333 135.334 27.083 132.218 M 31.215 181.853 L 31.215 157.453 L 30.626 157.079 C 26.106 162.996 21.659 169.043 17.129 175.938 L 30.915 188.43 C 31.411 186.112 31.123 184.274 31.215 181.852 M 146.563 179.643 C 149.084 181.755 151.326 184.533 153.997 187.744 C 154.641 180.505 155.222 173.958 155.869 166.668 L 142.236 176.675 C 143.925 177.838 145.103 178.647 146.563 179.644 M 48.376 170.794 C 46.278 168.906 44.53 172.289 42.515 171.797 C 42.459 171.783 42.216 172.544 42.252 172.895 C 42.671 176.94 43.127 180.977 43.607 185.324 C 45.536 183.257 47.161 181.499 48.797 179.766 C 50.484 177.978 52.64 177.895 54.597 176.077 C 52.463 174.266 50.549 172.641 48.376 170.794 M 42.653 185.621 C 42.545 185.011 42.534 184.293 42.315 183.809 C 40.517 179.845 39.96 175.502 40.561 170.751 C 40.627 170.228 40.626 169.689 40.559 169.167 C 40.39 167.894 39.932 166.815 39.04 167.112 C 38.237 167.378 38.472 168.644 38.542 169.565 C 38.784 172.754 38.921 175.982 39.356 179.107 C 39.766 182.063 39.389 185.286 40.427 188.062 C 41.367 187.732 42.087 187.196 42.653 185.621 M 23.354 151.23 C 23.23 152.093 23.133 152.942 23.759 153.474 C 24.112 153.773 28.842 153.036 29.136 152.636 C 29.528 152.102 29.658 151.389 29.668 150.62 C 29.683 149.465 29.672 148.31 29.672 146.864 C 27.403 147.913 24.564 145.733 23.354 151.23 M 36.501 177.112 C 36.052 176.218 36.096 174.847 35.079 173.86 C 35.574 178.847 35.627 183.527 37.328 187.604 C 38.311 184.001 37.762 180.718 36.501 177.112 M 151.437 115.706 C 150.828 115.502 150.228 114.606 149.506 115.748 C 149.854 117.513 150.383 119.104 151.345 120.3 C 152.73 118.315 152.73 118.315 151.437 115.706 Z" fill="rgb(120, 120, 120)"></path><path d="M 105.855 139.381 C 107.441 139.203 109.448 138.448 109.56 141.428 C 109.67 144.365 107.519 144.243 106.198 144.146 C 101.526 143.799 96.872 145.304 92.245 144.709 C 88.494 144.229 84.762 144.338 81.023 144.097 C 79.688 144.011 77.527 144.024 77.772 141.087 C 78.005 138.294 80.013 138.888 81.418 139.359 C 84.077 140.25 86.699 139.929 89.388 139.616 C 92.684 139.232 96.028 139.576 99.338 139.918 C 101.484 140.139 103.583 140.112 105.855 139.381 Z" fill="rgb(120, 120, 120)"></path><path d="M 94.02 138.664 C 93.602 138.537 93.334 138.447 93.086 138.285 C 92.256 137.741 91.374 137.176 91.61 135.373 C 91.757 134.248 92.237 133.517 93.034 133.458 C 94.03 133.384 94.79 134.093 95.157 135.46 C 95.558 136.948 95.279 138.181 94.02 138.664 Z" fill="rgb(120, 120, 120)"></path></g></svg>