<svg xmlns="http://www.w3.org/2000/svg" width="82" height="195" fill="none" overflow="visible"><path d="M 82 11.623 C 74.16 14.492 66.266 17.184 58.614 20.187 C 56.73 20.927 56.463 22.119 57.415 23.43 C 59.36 26.112 61.182 28.835 63.078 31.534 C 63.45 32.062 63.761 32.706 64.391 33.034 C 66.392 34.073 66.629 35.434 66.618 37.014 C 66.569 44.282 67.543 51.526 67.847 58.786 C 67.95 61.282 68.11 63.777 68.178 66.272 C 68.305 70.905 69.374 75.479 69.911 80.086 C 70.375 84.066 71.005 88.036 71.003 92.04 C 71.002 97.115 71.204 102.189 71.222 107.264 C 71.276 122.847 71.282 138.43 71.313 154.013 C 71.32 157.65 71.409 161.287 71.357 164.923 C 71.3 168.848 69.405 172.563 67.379 176.101 C 65.984 178.538 62.678 180.45 60.317 182.642 C 55.851 186.79 50.357 190.307 45.4 194.153 C 43.925 195.297 40.12 195.264 38.581 194.162 C 31.105 188.808 23.988 183.245 17.583 177.265 C 16.828 176.561 16.193 175.835 15.874 174.985 C 14.23 170.605 12.336 166.329 12.456 161.656 C 12.775 149.157 12.55 136.653 12.546 124.151 C 12.544 118.472 12.765 112.789 12.5 107.116 C 12.2 100.661 12.432 94.213 12.706 87.769 C 12.889 83.467 13.585 79.17 14.265 74.887 C 14.995 70.278 15.334 65.667 15.473 61.034 C 15.633 55.723 16.154 50.418 16.459 45.109 C 16.573 43.112 16.693 41.102 16.499 39.113 C 16.206 36.105 17.235 33.412 19.421 30.799 C 21.528 28.281 23.26 25.615 25.108 22.998 C 26.001 21.734 25.511 20.761 23.678 20.182 C 16.237 17.831 9.252 14.877 1.88 12.435 C 1.141 12.19 0.235 11.999 0 11.285 C 0.66 10.569 1.75 10.38 2.865 10.246 C 8.216 9.601 13.472 8.604 18.899 8.243 C 19.425 8.208 20.114 8.236 20.435 8.026 C 22.98 6.356 26.29 6.805 29.29 6.534 C 33.201 6.18 36.748 4.97 40.601 4.5 C 41.433 4.398 42.177 3.857 42.902 3.466 C 45.149 2.257 47.599 1.358 50.439 0.881 C 50.549 3.324 51.295 3.898 54.749 4.127 C 58.147 4.353 60.216 6.055 62.609 7.377 C 64.199 8.256 66.098 8.584 67.834 7.954 C 69.129 7.484 70.423 7.66 71.445 8.1 C 74.611 9.462 78.203 9.919 81.847 10.622 C 82 10.932 82 11.223 82 11.623 M 67.138 72.445 C 66.36 69.896 66.602 67.287 66.467 64.723 C 66.195 59.558 65.843 54.394 65.627 49.23 C 65.448 44.922 64.861 40.617 65.159 36.301 C 65.198 35.729 64.964 35.269 64.349 34.835 C 60.333 31.999 56.342 29.146 52.377 26.276 C 51.548 25.676 50.567 25.113 50.339 24.305 C 50.725 23.914 51.386 24.522 51.573 23.956 C 50.904 23.019 50.353 22.082 48.359 22.111 C 43.516 22.182 38.67 22.162 33.825 22.169 C 32.771 22.17 31.867 22.401 31.151 22.927 C 28.301 25.019 25.147 26.96 22.707 29.258 C 20.209 31.61 17.986 34.163 17.95 37.31 C 17.903 41.348 18.088 45.381 17.679 49.428 C 17.108 55.08 16.924 60.757 16.86 66.425 C 16.814 70.521 16.081 74.569 15.47 78.618 C 14.721 83.582 14.08 88.561 14.072 93.529 C 14.036 115.301 13.625 137.075 14.344 158.845 C 14.481 162.994 13.762 167.197 16.007 171.226 C 16.828 172.7 16.763 174.44 18.154 175.723 C 22.655 179.874 26.944 184.146 32.311 187.829 C 34.462 189.307 36.521 190.847 38.48 192.446 C 40.56 194.14 42.829 194.315 45.011 192.717 C 51.567 187.914 58.047 183.065 63.602 177.681 C 64.478 176.832 65.817 176.159 66.253 175.155 C 68.291 170.459 70.124 165.742 69.971 160.763 C 69.903 158.584 69.564 156.414 69.557 154.242 C 69.506 136.92 69.567 119.598 69.505 102.275 C 69.489 98.056 69.533 93.839 69.237 89.613 C 68.84 83.949 67.903 78.331 67.138 72.445 M 43.222 8.194 C 42.176 8.164 41.175 7.994 40.076 8.086 C 33.716 8.614 27.335 9.023 20.973 9.543 C 15.605 9.982 10.254 10.515 4.935 11.003 C 4.892 11.433 5.206 11.538 5.486 11.642 C 13.521 14.627 21.44 17.765 29.74 20.407 C 30.435 20.628 31.145 20.625 31.871 20.662 C 38.112 20.98 44.348 21.216 50.595 20.665 C 51.681 20.569 52.643 20.384 53.583 20.021 C 57.681 18.434 61.781 16.85 65.907 15.297 C 69.588 13.911 73.304 12.566 77.501 11.021 C 65.809 10.179 54.644 9.44 43.222 8.194 Z M 53.934 0 C 51.575 0.466 49.013 0.325 46.302 0.05 C 48.686 0 51.217 0 53.934 0 Z" fill="rgb(120, 120, 120)" stroke="rgb(120, 120, 120)" stroke-miterlimit="10"></path></svg>