<svg xmlns="http://www.w3.org/2000/svg" width="190" height="190" fill="none" overflow="visible"><path d="M 186.612 91.59 C 187.866 92.852 186.972 95 185.194 95 L 155.121 95 L 155.121 177 C 155.121 184.18 149.3 190 142.121 190 L 125.482 190 C 118.854 190 113.482 184.627 113.482 178 L 113.482 149.594 C 113.482 146.281 110.795 143.594 107.482 143.594 L 86.246 143.594 C 82.933 143.594 80.246 146.281 80.246 149.594 L 80.246 178 C 80.246 184.627 74.874 190 68.246 190 L 47.42 190 C 40.241 190 34.42 184.18 34.42 177 L 34.42 95 L 4.85 95 C 3.066 95 2.175 92.839 3.441 91.581 L 89.229 6.344 C 92.755 2.84 98.453 2.859 101.957 6.385 Z" fill="transparent" stroke-width="4" stroke="rgb(120, 120, 120)"></path></svg>