<svg xmlns="http://www.w3.org/2000/svg" width="190" height="190" fill="none" overflow="visible"><g><path d="M 172.916 173.968 C 174.31 171.645 175.744 169.566 176.971 167.154 C 179.945 161.311 181.863 154.336 183.453 147.055 C 185.607 137.192 187.016 126.961 187.92 116.539 C 188.431 110.649 188.718 104.688 188.923 98.716 C 189.128 92.732 189.142 86.754 189.048 80.788 C 188.758 62.453 187.264 44.48 183.366 27.355 C 181.69 19.99 179.522 13.128 176.225 7.59 C 174.596 4.852 172.811 2.581 170.575 1.62 C 170.066 1.402 169.518 1.131 169.062 0.246 C 169.623 -0.253 170.084 0.131 170.519 0.321 C 173.937 1.814 176.529 5.509 178.71 10.229 C 181.818 16.953 183.806 24.766 185.382 32.895 C 188.042 46.612 189.32 60.808 189.807 75.27 C 190.321 90.548 189.806 105.717 188.313 120.763 C 187.08 133.188 185.169 145.288 181.992 156.639 C 180.044 163.599 177.563 169.899 174.151 174.877 C 172.019 177.99 169.631 180.143 166.796 180.266 C 163.423 180.412 160.683 177.791 158.344 173.785 C 154.1 166.514 151.489 157.454 149.537 147.706 C 147.232 136.199 145.996 124.297 145.317 112.181 C 145.274 111.399 145.149 110.632 145.073 109.952 C 144.136 109.952 143.277 109.942 142.418 109.955 C 140.849 109.978 140.034 109.2 139.562 106.576 C 139.207 104.603 138.58 104.465 137.669 104.952 C 136.12 105.781 134.762 107.277 133.455 108.902 C 131.917 110.816 130.307 112.253 128.37 112.168 C 127.624 112.135 127.408 112.871 127.345 114.151 C 126.562 130.077 124.806 145.624 121.342 160.439 C 119.292 169.212 116.743 177.481 112.64 183.844 C 109.376 188.905 105.675 191.494 101.324 189.097 C 98.31 187.436 96.008 183.879 94.049 179.604 C 90.026 170.818 87.755 160.53 86.027 149.782 C 84.189 138.353 83.263 126.681 82.856 114.828 C 82.613 107.732 82.75 100.652 82.71 93.565 C 82.709 93.442 82.712 93.318 82.717 93.195 C 82.887 88.554 82.894 88.52 80.484 86.867 C 72.787 81.586 65.083 76.338 57.384 71.064 C 46.288 63.463 35.196 55.841 24.098 48.249 C 21.253 46.302 18.424 44.256 15.528 42.576 C 12.182 40.633 8.89 40.774 5.935 44.76 C 4.298 46.968 3.415 50.111 2.671 53.404 C 2.478 54.261 2.316 55.151 2.072 55.96 C 1.864 56.645 1.636 57.551 1.135 57.52 C 0.603 57.486 0.493 56.477 0.347 55.756 C -0.088 53.614 -0.048 51.385 0.111 49.173 C 1.094 35.529 9.111 25.078 17.611 31.014 C 23.805 35.338 30.027 39.532 36.235 43.794 C 48.812 52.427 61.389 61.067 73.966 69.703 C 76.682 71.568 79.4 73.422 82.115 75.295 C 83.564 76.294 83.594 76.297 83.825 73.655 C 84.82 62.292 86.325 51.158 88.751 40.479 C 90.777 31.562 93.29 23.135 97.302 16.44 C 98.724 14.066 100.275 11.99 102.192 10.995 C 102.505 10.832 102.818 10.384 103.164 10.901 C 103.166 11.563 102.86 11.685 102.618 11.85 C 99.209 14.18 96.794 18.638 94.692 23.702 C 90.565 33.643 88.313 45.054 86.562 56.853 C 85.704 62.636 84.972 68.476 84.601 74.409 C 84.4 77.608 84.873 80.942 84.381 84.115 C 83.278 91.225 83.408 98.497 83.459 105.727 C 83.52 114.22 83.93 122.686 84.602 131.112 C 85.458 141.842 86.921 152.281 89.272 162.278 C 90.965 169.474 93.003 176.363 96.279 181.762 C 98.62 185.618 101.251 188.481 104.622 188.218 C 107.653 187.982 110.115 185.5 112.316 182.016 C 116.913 174.739 119.552 165.26 121.62 155.241 C 123.846 144.459 125.341 133.337 126.046 121.891 C 126.407 116.023 126.644 110.146 126.888 104.262 C 127.165 97.588 127.042 90.948 126.785 84.336 C 126.229 70.069 125.084 55.953 122.349 42.393 C 120.606 33.746 118.445 25.495 114.855 18.722 C 112.305 13.91 109.304 10.565 105.409 10.606 C 105.244 10.608 105.078 10.503 104.752 10.393 C 105.322 9.441 105.895 9.572 106.445 9.601 C 109.564 9.769 112.109 12.287 114.328 15.928 C 117.68 21.431 119.906 28.312 121.664 35.693 C 124.732 48.57 126.376 62.063 127.198 75.939 C 127.73 84.914 127.834 93.895 127.77 102.899 C 127.764 103.685 127.664 104.496 127.888 105.372 C 129.315 105.553 130.655 105.151 131.913 103.733 C 133.693 101.728 135.362 99.345 137.451 98.331 C 139.306 97.431 139.999 97.969 140.638 101.17 C 140.96 102.788 141.525 103.442 142.429 103.346 C 143.016 103.284 143.6 103.12 144.187 103.07 C 144.712 103.026 144.932 102.58 144.922 101.671 C 144.87 97.243 145.291 92.85 145.003 88.381 C 144.662 83.098 145.07 77.793 145.396 72.528 C 145.889 64.565 146.574 56.652 147.663 48.864 C 149.16 38.165 151.144 27.791 154.367 18.31 C 155.855 13.932 157.479 9.68 159.875 6.623 C 160.062 6.385 160.224 6.006 160.788 6.158 C 159.693 7.767 158.893 9.464 158.081 11.136 C 155.838 15.756 154.138 20.943 152.74 26.478 C 149.695 38.537 147.915 51.188 146.814 64.248 C 145.782 76.49 145.577 88.758 145.68 101.083 C 145.682 101.268 145.644 101.49 145.688 101.633 C 146.942 105.675 145.853 110.058 146.272 114.263 C 146.687 118.432 146.839 122.699 147.313 126.863 C 148.631 138.433 150.226 149.847 153.626 160.17 C 155.466 165.756 157.61 170.928 160.733 174.431 C 162.671 176.604 164.863 177.869 167.187 177.857 C 168.478 177.851 169.655 176.693 170.83 175.844 C 171.516 175.349 172.325 175.147 172.916 173.968 M 52.918 56.853 C 50.525 55.222 48.13 53.598 45.738 51.959 C 36.041 45.313 26.368 38.549 16.637 32.067 C 12.544 29.341 8.643 30.663 5.22 35.553 C 4.008 37.284 2.799 39.332 3.232 42.499 C 3.42 43.869 2.664 45.186 3.308 46.582 C 3.713 45.947 4.084 45.408 4.428 44.817 C 5.464 43.039 6.624 41.63 7.994 40.783 C 10.953 38.951 13.885 39.457 16.74 41.354 C 21.866 44.76 26.957 48.336 32.065 51.831 C 41.473 58.269 50.883 64.703 60.294 71.131 C 67.539 76.08 74.788 81.006 82.027 85.982 C 82.677 86.429 82.943 86.104 83.197 85.043 C 83.619 83.284 83.505 81.413 83.691 79.614 C 83.808 78.482 83.625 77.912 83.027 77.507 C 80.341 75.683 77.672 73.784 74.989 71.947 C 67.683 66.943 60.373 61.958 52.918 56.853 M 131.845 108.866 C 134.161 106.332 136.317 103.203 139.171 102.672 C 139.522 102.607 139.739 102.189 139.721 101.535 C 139.699 100.762 139.551 100.066 139.114 99.742 C 138.647 99.397 138.164 99.462 137.69 99.719 C 136.625 100.298 135.635 101.15 134.688 102.2 C 133.143 103.913 131.744 106.143 129.856 106.7 C 129.346 106.851 128.832 106.984 128.327 107.178 C 127.586 107.464 127.773 108.548 127.766 109.422 C 127.757 110.487 128.196 110.573 128.633 110.502 C 129.706 110.326 130.757 109.973 131.845 108.866 M 144.269 108.114 C 144.918 107.777 145.607 107.441 145.404 105.836 C 145.212 104.325 144.537 104.568 143.905 104.673 C 143.46 104.747 143.01 104.728 142.562 104.747 C 141.833 104.779 141.632 105.579 141.652 106.711 C 141.672 107.873 142.009 108.351 142.653 108.26 C 143.133 108.192 143.617 108.192 144.269 108.114 Z" fill="rgb(0,0,0)" stroke-width="2.5" stroke="rgb(120, 120, 120)" stroke-miterlimit="10"></path><path d="M 174.173 20.162 C 177.448 30.179 180.683 40.081 183.959 50.104 C 184.561 47.92 182.226 34.899 180.185 27.738 C 178.151 20.605 175.611 14.29 171.703 9.914 C 172.169 9.231 172.447 9.783 172.723 10.036 C 175.397 12.483 177.294 16.376 178.928 20.725 C 181.008 26.262 182.3 32.443 183.549 38.67 C 185.472 48.253 186.479 58.158 187.021 68.249 C 187.598 79.012 187.653 89.758 187.139 100.552 C 186.635 111.147 185.799 121.616 184.195 131.857 C 182.606 141.997 180.516 151.791 176.971 160.344 C 174.738 165.73 172.102 170.39 168.189 171.717 C 165.547 172.612 163.112 171.54 160.906 168.789 C 156.619 163.445 154.383 155.522 152.421 147.301 C 150.324 138.513 149.246 129.237 148.41 119.842 C 147.558 110.274 147.111 100.652 147.227 90.984 C 147.335 82.015 147.701 73.07 148.579 64.198 C 149.366 56.241 150.248 48.346 151.75 40.699 C 153.546 31.556 155.813 22.876 159.469 15.551 C 160.511 13.464 161.759 11.794 163.121 10.41 C 163.591 9.93 164.111 9.629 164.65 9.526 C 164.737 10.09 164.578 10.237 164.43 10.382 C 160.929 13.808 158.584 19.197 156.624 25.165 C 152.409 37.995 150.436 52.108 149.166 66.638 C 148.408 75.313 148.087 84.056 148.032 92.792 C 147.988 99.605 148.26 106.445 148.695 113.256 C 149.208 121.3 150.045 129.211 151.278 136.983 C 152.729 146.126 154.717 154.842 158.221 162.209 C 159.879 165.693 161.763 168.685 164.309 169.934 C 167.764 171.629 170.773 169.81 173.345 165.713 C 177.081 159.76 179.317 152.011 181.14 143.883 C 183.79 132.066 185.192 119.728 185.969 107.098 C 186.543 97.75 186.568 88.399 186.516 79.03 C 186.503 76.754 186.378 74.478 186.308 72.202 C 186.284 71.435 186.093 70.783 185.884 70.138 C 180.403 53.262 174.925 36.383 169.434 19.518 C 169.181 18.742 168.956 17.875 168.437 17.339 C 168.068 17.948 168.208 18.679 168.232 19.38 C 168.356 22.953 168.468 26.531 168.004 30.061 C 167.898 30.872 167.865 31.973 167.276 32.091 C 166.678 32.211 166.511 31.165 166.344 30.378 C 164.94 23.741 164.948 17.013 165.962 10.225 C 166.064 9.544 166.265 9.204 166.675 9.116 C 168.144 8.801 169.248 10.127 169.584 12.664 C 169.632 13.022 169.695 13.376 169.769 13.72 C 170.36 16.494 171.706 18.24 172.695 20.501 C 172.316 17.184 171.394 14.35 170.307 11.667 C 170.076 11.095 169.549 10.631 170.134 9.927 C 170.646 9.311 170.894 10.166 171.097 10.773 C 172.122 13.851 173.124 16.953 174.173 20.162 M 166.826 25.512 C 166.814 26.397 166.801 27.283 167.11 28.526 C 167.287 26.878 167.285 25.713 166.951 24.118 C 166.878 24.803 166.854 25.027 166.826 25.512 Z M 124.433 73.829 C 124.634 76.8 124.879 79.598 125.003 82.412 C 125.337 89.973 125.394 97.566 125.173 105.14 C 124.736 120.059 123.452 134.761 120.741 148.967 C 119.266 156.699 117.396 164.117 114.589 170.647 C 112.764 174.893 110.627 178.552 107.75 180.549 C 104.62 182.721 101.698 181.865 98.968 178.576 C 95.154 173.981 92.85 167.284 90.994 160.03 C 88.213 149.156 86.851 137.628 85.957 125.841 C 85.18 115.61 85.011 105.349 85.204 95.082 C 85.399 84.697 86.146 74.369 87.435 64.235 C 88.978 52.091 91.168 40.359 95.234 30.041 C 96.809 26.047 98.638 22.44 101.108 20.021 C 104.766 16.436 108.266 17.007 111.671 21.042 C 114.465 24.352 116.314 29.091 117.896 34.211 C 121.174 44.825 122.919 56.317 123.998 68.183 C 124.163 70.003 124.282 71.836 124.433 73.829 M 95.099 33.189 C 93.606 37.152 92.465 41.441 91.459 45.843 C 88.481 58.87 87.076 72.546 86.365 86.459 C 85.765 98.199 85.785 109.951 86.498 121.7 C 87.109 131.768 88.066 141.689 89.902 151.297 C 91.566 160.008 93.694 168.248 97.487 174.801 C 100.715 180.379 104.746 181.725 108.547 178.291 C 110.883 176.18 112.676 172.911 114.22 169.219 C 116.853 162.918 118.661 155.849 120.064 148.462 C 123.35 131.171 124.45 113.266 124.452 95.132 C 124.453 88.375 124.201 81.606 123.717 74.867 C 122.88 63.208 121.547 51.798 118.903 40.967 C 117.171 33.873 114.946 27.414 111.389 22.67 C 108.392 18.671 104.273 18.439 101.148 22.037 C 98.681 24.878 96.783 28.653 95.099 33.189 Z" fill="rgb(120, 120, 120)" stroke="rgb(120, 120, 120)" stroke-miterlimit="10"></path></g></svg>